<svg width="203" height="40" viewBox="0 0 203 40" fill="none" xmlns="http://www.w3.org/2000/svg">
<path d="M192.589 21.3539C194.638 21.3421 197.477 21.0259 199.371 21.8174C201.384 22.6601 202.205 24.3218 203 26.1814V29.1582C202.559 30.2994 202.043 31.3612 201.146 32.2302C198.847 34.456 195.317 33.9092 192.368 33.9029C192.386 35.042 192.667 38.2536 192.04 39.0586C191.782 39.3892 191.339 39.4549 190.94 39.4964C189.863 39.6087 187.003 39.7324 186.229 38.9698C186.031 38.7749 185.991 38.6148 185.953 38.3485C185.79 37.1975 185.89 35.9273 185.883 34.7636C185.87 32.6228 185.813 30.4716 185.889 28.3324C188.024 25.9339 190.371 23.6819 192.589 21.3539Z" fill="black"/>
<path d="M192.344 26.0505C193.528 26.0298 195.007 25.8789 195.979 26.6863C196.234 26.8983 196.385 27.1526 196.387 27.4902C196.39 28.016 196.041 28.507 195.698 28.8794C194.675 29.5378 193.542 29.4183 192.376 29.4042L192.344 26.0505Z" fill="#E2E2E2"/>
<path d="M157.855 17.5583C158.813 17.5039 162.092 17.2968 162.731 17.8518C162.986 18.0735 163.041 18.5512 163.075 18.8631C163.193 19.9394 163.099 21.0822 163.085 22.1665C163.064 23.9306 163.054 25.6948 163.057 27.459L163.088 34.1557C163.095 35.3435 163.171 36.571 163.075 37.7532C163.037 38.2218 162.962 38.9588 162.625 39.3079C162.409 39.5313 161.693 39.5544 161.395 39.5626C160.521 39.5867 157.455 39.7384 156.931 39.2006C156.711 38.9746 156.61 38.657 156.567 38.3539C156.423 37.3567 156.563 36.1798 156.564 35.1607L156.563 27.9891C155.854 29.0516 152.429 33.9158 151.634 34.6097C151.402 34.812 151.114 34.976 150.791 34.9198C150.496 34.8688 150.252 34.656 150.06 34.4439C149.525 33.8545 149.115 33.0726 148.662 32.4176C147.736 31.0948 146.779 29.7938 145.791 28.5147L145.778 31.2881C145.787 33.3954 145.854 35.5192 145.795 37.625C145.781 38.1437 145.712 38.9427 145.278 39.2989C144.813 39.6793 140.691 39.6491 139.945 39.5114C139.7 39.4662 139.287 39.3486 139.156 39.1196C138.927 38.72 138.909 37.9359 138.888 37.4721C138.749 34.4578 138.891 31.3846 138.892 28.3642L138.879 23.0148C138.873 21.4779 138.69 19.8231 139.097 18.3293L139.253 18.3649L139.134 18.2487C139.142 18.2373 139.149 18.2244 139.159 18.215C139.906 17.5477 144.405 17.8336 145.594 17.8501C147.421 20.0106 149.389 23.2466 150.882 25.6704L154.308 21.2064C155.063 20.2233 155.798 19.1422 156.714 18.2986C157.069 17.9722 157.415 17.7604 157.855 17.5583Z" fill="black"/>
<path d="M183.936 0.0626913C184.444 -0.0083423 185.006 -0.00442845 185.52 0.00535579C188.371 0.0591691 190.939 1.25187 192.898 3.26292C193.017 3.38438 193.133 3.50864 193.246 3.6357C193.359 3.76276 193.469 3.89244 193.576 4.02472C193.682 4.15701 193.785 4.29177 193.885 4.42901C193.985 4.56625 194.081 4.70583 194.174 4.84777C194.267 4.98971 194.356 5.1338 194.442 5.28004C194.527 5.42615 194.609 5.57429 194.687 5.72444C194.765 5.8746 194.84 6.02651 194.91 6.18019C194.981 6.33387 195.047 6.48918 195.11 6.64612C195.173 6.80305 195.232 6.96136 195.287 7.12104C195.341 7.28085 195.392 7.44183 195.439 7.60399C195.486 7.76615 195.529 7.92935 195.567 8.0936C195.606 8.25784 195.64 8.42287 195.671 8.58868C195.701 8.75462 195.727 8.92115 195.749 9.08826C195.771 9.25538 195.789 9.42295 195.802 9.59098C195.816 9.75901 195.825 9.92723 195.831 10.0956C195.836 10.2641 195.837 10.4326 195.833 10.6011C195.678 16.4673 189.909 21.1828 185.879 24.908L185.188 25.5422C182.266 22.9222 177.946 19.0635 175.976 15.749C175.269 14.5578 174.758 13.2131 174.553 11.8474C174.133 9.04776 174.924 6.41423 176.645 4.16816C178.47 1.78609 180.944 0.469324 183.936 0.0626913Z" fill="#033EFF"/>
<path d="M184.404 6.96088C184.461 6.94784 184.518 6.93622 184.576 6.92605C184.634 6.91574 184.691 6.90687 184.749 6.89944C184.807 6.89187 184.865 6.88574 184.924 6.88104C184.982 6.87648 185.04 6.87328 185.099 6.87145C185.157 6.86963 185.215 6.86917 185.274 6.87009C185.332 6.87113 185.391 6.87354 185.449 6.87732C185.508 6.88111 185.566 6.88633 185.624 6.89298C185.682 6.8995 185.74 6.90753 185.797 6.91705C185.855 6.92644 185.912 6.93721 185.97 6.94934C186.027 6.9616 186.084 6.97516 186.14 6.99004C186.196 7.00504 186.253 7.02135 186.308 7.03896C186.364 7.05657 186.419 7.07555 186.474 7.0959C186.528 7.11626 186.582 7.13785 186.636 7.16068C186.69 7.18364 186.743 7.20784 186.795 7.23327C186.847 7.25884 186.899 7.28559 186.95 7.31351C187.001 7.34155 187.051 7.37078 187.101 7.40117C187.15 7.43157 187.199 7.46314 187.247 7.49589C187.295 7.52876 187.342 7.56268 187.388 7.59764C187.435 7.63273 187.48 7.66893 187.524 7.70624C187.569 7.74342 187.612 7.78171 187.655 7.82111C187.697 7.86038 187.739 7.90069 187.779 7.94205C187.82 7.9834 187.859 8.02573 187.898 8.06904C187.936 8.11222 187.973 8.15638 188.009 8.20152C188.045 8.24653 188.08 8.29239 188.114 8.33909C188.148 8.38579 188.18 8.43335 188.212 8.48174C188.243 8.53001 188.273 8.57906 188.302 8.6289C188.331 8.6786 188.359 8.72902 188.385 8.78016C188.412 8.8313 188.437 8.88303 188.461 8.93534C188.484 8.98765 188.507 9.04055 188.528 9.09404C188.549 9.1474 188.569 9.20127 188.587 9.25568C188.606 9.31008 188.623 9.36487 188.639 9.42005C188.654 9.47523 188.669 9.53074 188.681 9.58658C188.694 9.64242 188.706 9.69858 188.716 9.75506C188.726 9.81142 188.734 9.86804 188.741 9.92492C188.749 9.9818 188.754 10.0388 188.759 10.0959C188.763 10.1531 188.766 10.2103 188.767 10.2676C188.769 10.3248 188.769 10.3821 188.767 10.4394C188.766 10.4966 188.763 10.5539 188.759 10.611C188.754 10.668 188.749 10.7249 188.741 10.7818C188.734 10.8387 188.726 10.8954 188.715 10.9519C188.705 11.0082 188.694 11.0643 188.681 11.1202C188.668 11.1761 188.654 11.2317 188.638 11.2869C188.623 11.3421 188.606 11.3968 188.587 11.4511C188.569 11.5055 188.549 11.5593 188.528 11.6127C188.507 11.6662 188.484 11.7191 188.46 11.7714C188.437 11.8237 188.411 11.8754 188.385 11.9266C188.359 11.9776 188.331 12.028 188.302 12.0778C188.273 12.1275 188.243 12.1766 188.211 12.225C188.18 12.2733 188.147 12.3208 188.113 12.3675C188.08 12.4142 188.045 12.4601 188.009 12.5052C187.972 12.5502 187.935 12.5943 187.897 12.6375C187.859 12.6808 187.819 12.7231 187.779 12.7645C187.738 12.8059 187.697 12.8462 187.654 12.8854C187.612 12.9247 187.568 12.963 187.524 13.0003C187.479 13.0375 187.434 13.0736 187.388 13.1087C187.341 13.1437 187.294 13.1775 187.246 13.2103C187.198 13.2431 187.15 13.2748 187.1 13.3052C187.051 13.3356 187 13.3647 186.949 13.3927C186.898 13.4207 186.846 13.4474 186.794 13.4729C186.742 13.4983 186.689 13.5225 186.635 13.5455C186.582 13.5683 186.527 13.5899 186.473 13.6103C186.418 13.6306 186.363 13.6496 186.307 13.6672C186.252 13.6848 186.196 13.701 186.139 13.7159C186.083 13.7309 186.026 13.7445 185.969 13.7566C185.912 13.7686 185.855 13.7793 185.798 13.7887C185.741 13.7981 185.684 13.8061 185.626 13.8126C185.569 13.8192 185.511 13.8245 185.453 13.8282C185.396 13.8322 185.338 13.8346 185.28 13.8357C185.222 13.8367 185.164 13.8364 185.106 13.8347C185.048 13.833 184.991 13.8299 184.933 13.8253C184.875 13.8209 184.818 13.8151 184.76 13.8079C184.703 13.8006 184.645 13.792 184.588 13.7821C184.531 13.7721 184.475 13.7608 184.418 13.748C184.362 13.7354 184.306 13.7213 184.25 13.7059C184.194 13.6907 184.139 13.674 184.084 13.656C184.029 13.638 183.975 13.6187 183.921 13.5981C183.867 13.5774 183.813 13.5555 183.76 13.5324C183.708 13.5091 183.655 13.4847 183.604 13.459C183.552 13.4333 183.501 13.4064 183.451 13.3784C183.401 13.3502 183.351 13.3209 183.302 13.2905C183.253 13.26 183.205 13.2283 183.158 13.1956C183.111 13.1627 183.064 13.1288 183.019 13.0938C182.973 13.0589 182.929 13.0228 182.885 12.9856C182.841 12.9484 182.798 12.9103 182.756 12.8711C182.715 12.8319 182.674 12.7917 182.634 12.7506C182.594 12.7094 182.555 12.6673 182.517 12.6244C182.48 12.5813 182.443 12.5374 182.407 12.4927C182.372 12.448 182.337 12.4024 182.304 12.3559C182.271 12.3095 182.239 12.2623 182.208 12.2144C182.177 12.1664 182.147 12.1178 182.119 12.0685C182.09 12.019 182.063 11.969 182.037 11.9184C182.011 11.8676 181.986 11.8163 181.963 11.7646C181.939 11.7126 181.917 11.6603 181.896 11.6074C181.875 11.5545 181.856 11.501 181.838 11.4471C181.819 11.3933 181.802 11.339 181.787 11.2843C181.772 11.2297 181.757 11.1747 181.745 11.1194C181.732 11.0641 181.72 11.0084 181.711 10.9525C181.701 10.8966 181.692 10.8406 181.685 10.7844C181.678 10.728 181.672 10.6715 181.668 10.6149C181.663 10.5584 181.66 10.5018 181.659 10.445C181.657 10.3883 181.657 10.3316 181.658 10.275C181.66 10.2183 181.662 10.1616 181.667 10.1049C181.671 10.0483 181.676 9.99191 181.683 9.93568C181.69 9.87932 181.698 9.82316 181.708 9.7672C181.718 9.71136 181.729 9.65572 181.741 9.60028C181.754 9.54484 181.768 9.48978 181.783 9.43512C181.798 9.38033 181.815 9.32599 181.833 9.27212C181.851 9.21824 181.87 9.16475 181.891 9.11165C181.912 9.05869 181.933 9.00625 181.957 8.95432C181.98 8.90227 182.004 8.85087 182.03 8.80012C182.056 8.74937 182.083 8.69928 182.111 8.64984C182.14 8.60027 182.169 8.55147 182.2 8.50346C182.231 8.45533 182.263 8.40797 182.296 8.3614C182.329 8.31496 182.363 8.26923 182.399 8.22422C182.434 8.17934 182.471 8.13532 182.508 8.09214C182.546 8.04896 182.584 8.00675 182.624 7.96553C182.664 7.92417 182.704 7.8838 182.746 7.8444C182.788 7.80513 182.83 7.76684 182.874 7.72953C182.918 7.69222 182.962 7.65596 183.008 7.62073C183.053 7.58551 183.099 7.55139 183.146 7.51839C183.193 7.48538 183.241 7.45355 183.29 7.42289C183.339 7.39223 183.388 7.36275 183.438 7.33444C183.489 7.30613 183.539 7.27906 183.591 7.25323C183.642 7.22727 183.695 7.20262 183.747 7.17927C183.8 7.15591 183.853 7.1338 183.907 7.11293C183.961 7.09206 184.016 7.07255 184.07 7.05442C184.125 7.03615 184.18 7.01919 184.236 7.00354C184.292 6.98801 184.348 6.9738 184.404 6.96088Z" fill="#E2E2E2"/>
<path d="M9.88253 20.9646C11.2483 20.9453 12.6141 20.9488 13.9797 20.975C14.9104 21.7732 15.6876 22.8226 16.479 23.7512C18.1544 25.7166 19.7786 27.7204 21.4407 29.6965C21.4614 28.1903 21.0787 22.5367 21.7383 21.5407C21.9274 21.255 22.1991 21.1229 22.5275 21.0452C23.2643 20.8711 26.6082 20.8468 27.185 21.2789C27.5298 21.5372 27.5759 22.2708 27.6125 22.6825C27.8274 25.102 27.6185 28.3997 27.6217 30.9471L27.6297 35.8175C27.6305 36.6724 27.7096 37.606 27.5843 38.4483C27.5308 38.8093 27.3103 39.0512 27.0774 39.3224C25.8518 39.8261 23.7339 39.5318 22.4064 39.4402C21.4972 38.64 20.7146 37.6013 19.9336 36.6791C18.3999 34.8691 16.892 33.0388 15.4099 31.188C15.3942 32.6644 15.9063 38.1571 15.2419 39.0782C15.0367 39.3627 14.6346 39.4811 14.2966 39.5265C13.5498 39.6271 10.2803 39.6607 9.78428 39.2615C9.4209 38.9692 9.38347 38.1156 9.35263 37.67C9.15547 34.822 9.32619 31.841 9.33096 28.9791C9.33456 26.8164 9.14464 24.1028 9.42256 22.0264C9.48444 21.5642 9.56849 21.3165 9.88253 20.9646Z" fill="black"/>
<path d="M64.2973 21.0113C64.6209 20.9993 64.9457 20.987 65.2697 20.9966C65.7842 21.0117 66.2882 21.0516 66.6155 21.4966C67.9175 23.2675 65.9292 31.9458 67.8647 33.8073C68.3132 34.2386 68.9409 34.3719 69.5516 34.347C70.5577 34.3059 71.3672 33.8412 71.7901 32.9304C72.8223 30.7069 71.3968 22.5903 72.6494 21.4754C73.3417 20.8594 75.0872 21.0989 75.9896 21.0899C76.6588 21.0833 77.6846 20.9743 78.182 21.4954C78.7229 22.0623 78.4662 28.8273 78.4666 29.9543C78.5072 32.6541 78.5339 35.3452 76.4848 37.4181C74.7732 39.1497 72.2944 39.9158 69.8835 39.9561C67.496 39.9962 64.9511 39.397 63.2042 37.7134C61.307 35.8847 60.7593 33.4171 60.732 30.9002C60.7126 29.1187 60.7617 27.336 60.7521 25.5541C60.7467 24.526 60.5977 23.3129 60.7747 22.3081C60.8278 22.0052 60.9535 21.7132 61.1862 21.5011C61.9014 20.8489 63.3777 21.0146 64.2973 21.0113Z" fill="black"/>
<path d="M171.929 21.0845C173.298 21.0046 176.139 20.843 177.401 21.108C177.65 21.16 177.784 21.2217 177.925 21.4377C178.409 22.1795 178.7 23.1687 179.054 23.9845C180.189 26.5988 181.283 29.2291 182.337 31.8757C182.833 33.1081 183.336 34.3373 183.848 35.5632C184.179 36.3356 184.574 37.1029 184.847 37.8964C184.97 38.2554 185.109 38.6554 185.033 39.0356C184.909 39.1485 184.8 39.2462 184.642 39.3112C183.934 39.6027 179.908 39.6708 179.201 39.3423C178.336 38.9401 178.06 37.6036 177.753 36.7903C175.562 36.6438 173.328 36.7248 171.132 36.7301C170.827 37.4611 170.732 38.538 170.158 39.1069C169.504 39.7546 167.029 39.5231 166.111 39.4967C165.632 39.483 165.026 39.4832 164.675 39.1231C164.54 38.7433 164.489 38.458 164.579 38.0588C164.858 36.8109 165.555 35.5057 166 34.2938C167.386 30.5169 168.773 26.7282 170.287 22.9985C170.7 21.9809 170.856 21.5379 171.929 21.0845Z" fill="black"/>
<path d="M174.554 27.5754C175.247 28.9926 175.692 30.6671 176.229 32.1553L174.212 32.1619L172.693 32.1529C173.25 30.6024 173.87 29.0766 174.554 27.5754Z" fill="#E2E2E2"/>
<path d="M104.03 21.1787C105.138 21.1045 108.131 20.9222 109.074 21.2605C109.479 21.4057 109.729 21.844 109.93 22.1939C110.393 23.0019 110.695 23.9598 111.033 24.8251C111.914 27.0778 112.704 29.4233 113.734 31.6093C114.613 29.402 115.432 27.1692 116.276 24.949C116.641 23.988 116.946 22.8506 117.462 21.9675C117.621 21.6951 117.819 21.4642 118.106 21.3176C118.808 20.9597 121.541 21.0368 122.298 21.24C122.749 21.3609 123.225 21.5943 123.429 22.0329C123.855 22.9463 121.815 27.0448 121.405 28.0118C120.789 29.5337 116.88 38.8314 116.251 39.3189C115.755 39.7034 112.004 39.6766 111.268 39.5263C110.815 39.4339 110.533 39.2273 110.28 38.8502C109.713 38.0035 109.352 36.9824 108.943 36.0545L106.818 31.2168C106.001 29.378 105.195 27.5344 104.401 25.6861C104.049 24.8736 103.588 24.0388 103.316 23.1992C103.195 22.8246 103.121 22.4008 103.228 22.0139C103.353 21.566 103.648 21.4069 104.03 21.1787Z" fill="black"/>
<path d="M125.195 21.1823C126.548 21.0782 135.811 21.0138 136.267 21.4095C136.627 21.7216 136.745 22.3435 136.786 22.7867C136.857 23.5673 136.989 25.1303 136.435 25.7199C135.693 26.5108 131.894 26.1314 130.692 26.1376L130.686 27.9399C131.591 27.9616 135.169 27.6691 135.689 28.2489C136.118 28.7266 136.037 29.5942 136.05 30.194C136.066 30.9331 136.1 31.8258 135.505 32.3806C134.732 33.1027 131.911 32.769 130.77 32.768C130.751 33.2598 130.618 34.1149 130.9 34.5235L131.168 34.5558C132.025 34.5664 132.882 34.5376 133.739 34.5247C134.57 34.5122 135.745 34.3635 136.38 35.0161C136.954 35.6055 136.806 36.798 136.802 37.5566C136.798 38.2413 136.744 38.8822 136.224 39.3828C134.881 39.7029 126.554 39.7006 125.091 39.4792C124.87 39.4458 124.689 39.2654 124.567 39.0871C124.39 38.827 124.324 38.5409 124.305 38.2319C124.221 36.8349 124.209 22.4112 124.371 21.9161C124.508 21.4954 124.823 21.3694 125.195 21.1823Z" fill="black"/>
<path d="M39.0797 20.7141C39.3743 20.693 39.6677 20.6969 39.9629 20.7022C41.3807 20.7272 44.4841 21.1115 45.4527 22.1829C45.7425 22.5035 45.774 22.8481 45.7319 23.2563C45.6268 24.273 45.0941 26.3852 44.2244 27.0067C43.6923 27.3872 41.7584 26.4612 40.9533 26.3152C39.7103 26.0902 38.4717 26.1964 37.4154 26.9351C36.498 27.5768 35.9038 28.6037 35.764 29.6947C35.623 30.794 35.9893 32.0625 36.6862 32.9342C37.8135 34.3447 40.0291 34.6191 41.7041 34.1181C42.5298 33.8712 43.5243 33.2833 44.3878 33.3916C45.3564 34.1174 45.6746 36.1709 45.8941 37.2825C45.9103 37.642 45.9274 37.9328 45.6838 38.2336C44.8714 39.2365 42.4405 39.6574 41.1832 39.7856C38.2168 40.0883 35.1194 39.5552 32.7629 37.6751C30.8471 36.1468 29.7168 33.8592 29.4881 31.4674C29.2344 28.8151 29.9022 26.3025 31.6667 24.2511C33.6006 22.0029 36.1407 20.9662 39.0797 20.7141Z" fill="black"/>
<path d="M86.3044 20.7097C86.6084 20.669 86.9424 20.675 87.2498 20.6696C88.7854 20.6424 91.8061 20.8412 92.9316 21.9885C93.1831 22.2446 93.2864 22.5495 93.2742 22.8994C93.2488 23.6224 92.6883 25.5429 92.0811 25.9366C91.0838 26.5835 89.3209 25.5176 88.2163 25.402C87.6618 25.3439 86.7286 25.3372 86.3132 25.7783C86.134 25.9683 86.0347 26.3495 86.0379 26.6021C86.0415 26.8908 86.1767 27.1657 86.4144 27.3371C87.7066 28.269 90.4326 28.1365 92.3657 29.7145C93.3736 30.537 93.8722 31.6663 93.9653 32.9323C94.0921 34.6598 93.6189 36.4214 92.4277 37.7301C90.9348 39.3698 88.9438 39.8735 86.7808 40.0001C85.3802 39.9639 84.0579 39.8126 82.7102 39.4238C81.943 39.2025 80.3888 38.7704 80.0599 37.9808C79.8062 37.3716 80.0864 36.6212 80.3087 36.0367C80.5696 35.351 81.0362 33.8532 81.8216 33.5992C82.097 33.5102 82.3451 33.5499 82.59 33.6822C83.971 34.4272 85.5382 34.9902 87.1383 34.7947C87.4881 34.752 87.7239 34.6808 87.9546 34.4027C88.0116 34.2295 88.026 34.1348 87.996 33.9503C87.9279 33.5347 87.6373 33.2114 87.2719 33.0139C85.7177 32.1735 83.5775 32.3825 81.8897 31.15C80.8283 30.3751 80.3539 29.2045 80.2031 27.9531C79.9941 26.2192 80.2226 24.47 81.365 23.0647C82.6593 21.473 84.3156 20.9429 86.3044 20.7097Z" fill="black"/>
<path d="M0.91853 17.4679C2.14069 17.3925 5.07859 17.244 6.17118 17.527C6.21042 17.5368 6.24905 17.5485 6.28705 17.5622C6.32507 17.5759 6.36228 17.5914 6.39869 17.6088C6.43509 17.6261 6.4705 17.6452 6.50491 17.6661C6.53932 17.6871 6.57255 17.7097 6.6046 17.7338C6.63667 17.7581 6.66739 17.7838 6.69676 17.8111C6.72615 17.8385 6.75404 17.8672 6.78043 17.8972C6.80683 17.9273 6.83159 17.9587 6.85474 17.9911C6.87787 18.0238 6.89925 18.0574 6.91889 18.0921C7.12808 18.4565 7.1312 18.9275 7.14762 19.3367C7.29555 23.0212 7.15886 26.7637 7.14786 30.4541C7.14067 32.8624 7.2898 35.3173 7.19897 37.7175C7.18631 38.0524 7.15137 38.4122 7.03602 38.729C6.88474 39.1445 6.59403 39.2889 6.21109 39.4587C4.9955 39.6564 1.3774 39.7887 0.410832 39.1617C0.15234 38.7196 0.12118 37.9336 0.0955036 37.4222C-0.104112 33.4467 0.0701144 29.124 0.07663 25.1239C0.0785555 23.9423 -0.0927212 19.1731 0.169949 18.2958C0.291213 17.8908 0.573596 17.6902 0.91853 17.4679Z" fill="black"/>
<path d="M49.3285 20.9998C50.1852 20.989 53.0333 20.7309 53.6063 21.2784C53.9531 21.6099 54.0963 22.2978 54.155 22.7461C54.312 23.9445 54.2028 25.2773 54.2024 26.4895C54.1843 29.1117 54.1916 31.7338 54.2245 34.3557C55.3291 34.3686 58.5102 34.0539 59.3729 34.6197C59.8153 34.9097 60.0174 35.4697 60.0878 35.9642C60.2152 36.8587 60.2851 38.4404 59.6671 39.1588C59.3787 39.4944 59.0279 39.52 58.6115 39.5484C57.0327 39.5401 49.2821 39.826 48.3961 39.357C48.1186 39.2102 47.8991 38.8758 47.8168 38.5854C47.5292 37.5694 47.7345 33.9166 47.7355 32.6528C47.7383 29.4074 47.5943 26.0909 47.7747 22.8531C47.7964 22.4602 47.7984 21.9584 48.0265 21.6232C48.3367 21.1679 48.8171 21.0918 49.3285 20.9998Z" fill="black"/>
<path d="M96.8269 21.0927C98.0014 21.0334 100.57 20.808 101.599 21.3208C101.812 21.6764 101.82 22.3175 101.842 22.7298C102.027 26.2766 101.894 29.8989 101.89 33.4535C101.889 34.7939 102.076 37.529 101.801 38.7333C101.702 39.1694 101.369 39.3681 101.003 39.5686C99.7849 39.5892 97.7607 39.8148 96.6451 39.4847C96.29 39.3796 95.9732 39.1738 95.8176 38.8321C95.5915 38.3362 95.6776 24.2776 95.7457 22.6625C95.7577 22.3803 95.7547 21.9498 95.8919 21.7016C96.1004 21.3246 96.4386 21.2203 96.8269 21.0927Z" fill="black"/>
</svg>
