<svg width="58" height="78" viewBox="0 0 58 78" fill="none" xmlns="http://www.w3.org/2000/svg">
<path d="M29 0C12.9533 0 0 12.9533 0 29C0 48.3333 29 77.3333 29 77.3333C29 77.3333 58 48.3333 58 29C58 12.9533 45.0467 0 29 0Z" fill="#3EFF4B"/>
<path d="M39.1912 23.8778L38.2262 22.2026C38.1061 21.994 37.9081 21.8416 37.6757 21.7789C37.4433 21.7163 37.1955 21.7485 36.9869 21.8686L31.2219 25.2084C31.1861 25.2291 31.1455 25.2399 31.1042 25.2398C31.0628 25.2397 31.0223 25.2287 30.9866 25.2079C30.9509 25.1871 30.9213 25.1572 30.9009 25.1213C30.8805 25.0853 30.8699 25.0447 30.8703 25.0033L30.875 18.3541C30.875 18.1055 30.7762 17.867 30.6004 17.6912C30.4246 17.5154 30.1861 17.4166 29.9375 17.4166H28.0625C27.8139 17.4166 27.5754 17.5154 27.3996 17.6912C27.2238 17.867 27.125 18.1055 27.125 18.3541L27.1291 25.0086C27.1295 25.0499 27.1189 25.0906 27.0985 25.1265C27.0781 25.1625 27.0485 25.1924 27.0128 25.2132C26.9771 25.234 26.9366 25.245 26.8953 25.2451C26.8539 25.2452 26.8133 25.2344 26.7775 25.2137L21.0125 21.8739C20.8039 21.7538 20.5561 21.7216 20.3237 21.7842C20.0913 21.8468 19.8933 21.9992 19.7732 22.2078L18.8088 23.8836C18.7492 23.9866 18.7106 24.1004 18.6952 24.2183C18.6797 24.3363 18.6877 24.4562 18.7187 24.571C18.7496 24.6859 18.803 24.7935 18.8757 24.8877C18.9484 24.9819 19.0389 25.0608 19.1422 25.1199L24.9131 28.4645C24.9483 28.4852 24.9776 28.5147 24.9979 28.5502C25.0182 28.5856 25.0289 28.6258 25.0289 28.6666C25.0289 28.7075 25.0182 28.7476 24.9979 28.7831C24.9776 28.8186 24.9483 28.8481 24.9131 28.8688L19.1422 32.2133C18.9351 32.334 18.7839 32.5315 18.7215 32.763C18.659 32.9944 18.6904 33.2412 18.8088 33.4496L19.7738 35.1248C19.8939 35.3334 20.0919 35.4858 20.3243 35.5485C20.5567 35.6111 20.8045 35.5788 21.0131 35.4588L26.7781 32.119C26.8139 32.0983 26.8545 32.0875 26.8958 32.0876C26.9372 32.0877 26.9777 32.0987 27.0134 32.1195C27.0491 32.1403 27.0787 32.1702 27.0991 32.2061C27.1195 32.242 27.1301 32.2827 27.1297 32.324L27.125 38.9791C27.125 39.2278 27.2238 39.4662 27.3996 39.642C27.5754 39.8179 27.8139 39.9166 28.0625 39.9166H29.9375C30.1861 39.9166 30.4246 39.8179 30.6004 39.642C30.7762 39.4662 30.875 39.2278 30.875 38.9791L30.8709 32.3188C30.8705 32.2775 30.8811 32.2368 30.9015 32.2008C30.9219 32.1649 30.9515 32.135 30.9872 32.1142C31.0229 32.0934 31.0634 32.0824 31.1047 32.0823C31.1461 32.0822 31.1867 32.093 31.2225 32.1137L36.9875 35.4535C37.1961 35.5736 37.4439 35.6058 37.6763 35.5432C37.9087 35.4805 38.1067 35.3282 38.2268 35.1196L39.1918 33.4444C39.2513 33.3414 39.29 33.2276 39.3054 33.1096C39.3209 32.9917 39.3129 32.8718 39.2819 32.7569C39.2509 32.6421 39.1976 32.5344 39.1249 32.4402C39.0522 32.346 38.9617 32.2671 38.8584 32.208L33.0875 28.8635C33.0523 28.8428 33.023 28.8133 33.0027 28.7778C32.9824 28.7424 32.9717 28.7022 32.9717 28.6614C32.9717 28.6205 32.9824 28.5803 33.0027 28.5449C33.023 28.5094 33.0523 28.4799 33.0875 28.4592L38.8584 25.1147C39.0659 24.9942 39.2174 24.7965 39.2798 24.5648C39.3421 24.3331 39.3103 24.0861 39.1912 23.8778Z" stroke="#222020" stroke-width="2" stroke-linecap="round" stroke-linejoin="round"/>
</svg>
