<svg width="128" height="128" viewBox="0 0 128 128" fill="none" xmlns="http://www.w3.org/2000/svg">
<path d="M50.6667 85.3333C40.9778 85.3333 32.7787 81.9769 26.0693 75.264C19.36 68.5511 16.0036 60.352 16 50.6667C15.9964 40.9813 19.3529 32.7822 26.0693 26.0693C32.7858 19.3564 40.9849 16 50.6667 16C60.3484 16 68.5493 19.3564 75.2693 26.0693C81.9893 32.7822 85.344 40.9813 85.3333 50.6667C85.3333 54.5778 84.7111 58.2667 83.4667 61.7333C82.2222 65.2 80.5333 68.2667 78.4 70.9333L108.267 100.8C109.244 101.778 109.733 103.022 109.733 104.533C109.733 106.044 109.244 107.289 108.267 108.267C107.289 109.244 106.044 109.733 104.533 109.733C103.022 109.733 101.778 109.244 100.8 108.267L70.9333 78.4C68.2667 80.5333 65.2 82.2222 61.7333 83.4667C58.2667 84.7111 54.5778 85.3333 50.6667 85.3333ZM50.6667 74.6667C57.3333 74.6667 63.0009 72.3342 67.6693 67.6693C72.3378 63.0044 74.6702 57.3369 74.6667 50.6667C74.6631 43.9964 72.3307 38.3307 67.6693 33.6693C63.008 29.008 57.3404 26.6738 50.6667 26.6667C43.9929 26.6596 38.3271 28.9938 33.6693 33.6693C29.0116 38.3449 26.6773 44.0107 26.6667 50.6667C26.656 57.3227 28.9902 62.9902 33.6693 67.6693C38.3484 72.3484 44.0142 74.6809 50.6667 74.6667Z" fill="#033EFF"/>
</svg>
