<svg width="128" height="128" viewBox="0 0 128 128" fill="none" xmlns="http://www.w3.org/2000/svg">
<path d="M64.0001 66.5334L74.1334 72.6667C75.1112 73.289 76.089 73.2676 77.0668 72.6027C78.0445 71.9379 78.4001 71.0259 78.1334 69.8668L75.4668 58.2668L84.5334 50.4001C85.4223 49.6001 85.689 48.6454 85.3334 47.5361C84.9779 46.4268 84.1779 45.8259 82.9334 45.7334L71.0668 44.8001L66.4001 33.8667C65.9556 32.8001 65.1556 32.2668 64.0001 32.2668C62.8445 32.2668 62.0445 32.8001 61.6001 33.8667L56.9334 44.8001L45.0668 45.7334C43.8223 45.8223 43.0223 46.4232 42.6668 47.5361C42.3112 48.649 42.5779 49.6036 43.4668 50.4001L52.5334 58.2668L49.8668 69.8668C49.6001 71.0223 49.9556 71.9343 50.9334 72.6027C51.9112 73.2712 52.889 73.2925 53.8668 72.6667L64.0001 66.5334ZM32.0001 96.0001L19.7334 108.267C18.0445 109.956 16.1103 110.334 13.9308 109.403C11.7512 108.471 10.6632 106.804 10.6668 104.4V21.3334C10.6668 18.4001 11.7121 15.8899 13.8028 13.8027C15.8934 11.7156 18.4036 10.6703 21.3334 10.6667H106.667C109.6 10.6667 112.112 11.7121 114.203 13.8027C116.293 15.8934 117.337 18.4036 117.333 21.3334V85.3334C117.333 88.2668 116.29 90.7787 114.203 92.8694C112.116 94.9601 109.604 96.0036 106.667 96.0001H32.0001ZM27.4668 85.3334H106.667V21.3334H21.3334V91.3334L27.4668 85.3334Z" fill="#033EFF"/>
</svg>
